<svg xmlns="http://www.w3.org/2000/svg" viewBox="0 0 1400 980" font-family="ui-monospace, 'JetBrains Mono', 'Fira Code', Menlo, monospace">
  <defs>
    <!-- Subtle grid pattern -->
    <pattern id="grid" width="40" height="40" patternUnits="userSpaceOnUse">
      <path d="M 40 0 L 0 0 0 40" fill="none" stroke="rgba(255,255,255,0.025)" stroke-width="1"/>
    </pattern>

    <!-- Vignette / atmospheric gradient -->
    <radialGradient id="atmosphere" cx="50%" cy="40%" r="70%">
      <stop offset="0%" stop-color="#1a1f2e" stop-opacity="0.6"/>
      <stop offset="100%" stop-color="#0d1117" stop-opacity="1"/>
    </radialGradient>

    <!-- Accent gradients for flow lines -->
    <linearGradient id="cyanFlow" x1="0%" y1="0%" x2="0%" y2="100%">
      <stop offset="0%" stop-color="#00d9ff" stop-opacity="0.95"/>
      <stop offset="100%" stop-color="#00d9ff" stop-opacity="0.25"/>
    </linearGradient>

    <linearGradient id="amberFlow" x1="0%" y1="0%" x2="100%" y2="0%">
      <stop offset="0%" stop-color="#ffb800" stop-opacity="0.85"/>
      <stop offset="100%" stop-color="#ffb800" stop-opacity="0.35"/>
    </linearGradient>

    <linearGradient id="pinkFlow" x1="0%" y1="0%" x2="0%" y2="100%">
      <stop offset="0%" stop-color="#ff3b9a" stop-opacity="0.85"/>
      <stop offset="100%" stop-color="#ff3b9a" stop-opacity="0.35"/>
    </linearGradient>

    <!-- Card background -->
    <linearGradient id="cardBg" x1="0%" y1="0%" x2="0%" y2="100%">
      <stop offset="0%" stop-color="#161b22" stop-opacity="0.95"/>
      <stop offset="100%" stop-color="#0d1117" stop-opacity="0.95"/>
    </linearGradient>

    <linearGradient id="pipelineBg" x1="0%" y1="0%" x2="0%" y2="100%">
      <stop offset="0%" stop-color="#0f1620"/>
      <stop offset="100%" stop-color="#0a0e15"/>
    </linearGradient>

    <!-- Arrow markers -->
    <marker id="arrowCyan" markerWidth="10" markerHeight="10" refX="9" refY="3" orient="auto" markerUnits="strokeWidth">
      <path d="M0,0 L0,6 L9,3 z" fill="#00d9ff"/>
    </marker>

    <marker id="arrowAmber" markerWidth="10" markerHeight="10" refX="9" refY="3" orient="auto" markerUnits="strokeWidth">
      <path d="M0,0 L0,6 L9,3 z" fill="#ffb800"/>
    </marker>

    <marker id="arrowPink" markerWidth="10" markerHeight="10" refX="9" refY="3" orient="auto" markerUnits="strokeWidth">
      <path d="M0,0 L0,6 L9,3 z" fill="#ff3b9a"/>
    </marker>

    <marker id="arrowGreen" markerWidth="10" markerHeight="10" refX="9" refY="3" orient="auto" markerUnits="strokeWidth">
      <path d="M0,0 L0,6 L9,3 z" fill="#00d97e"/>
    </marker>

    <!-- Glow filters -->
    <filter id="cyanGlow" x="-50%" y="-50%" width="200%" height="200%">
      <feGaussianBlur stdDeviation="3" result="blur"/>
      <feFlood flood-color="#00d9ff" flood-opacity="0.5"/>
      <feComposite in2="blur" operator="in"/>
      <feMerge>
        <feMergeNode/>
        <feMergeNode in="SourceGraphic"/>
      </feMerge>
    </filter>
  </defs>

  <!-- Background -->
  <rect width="1400" height="980" fill="#0d1117"/>
  <rect width="1400" height="980" fill="url(#atmosphere)"/>
  <rect width="1400" height="980" fill="url(#grid)"/>

  <!-- Decorative corner brackets -->
  <g stroke="rgba(255,255,255,0.15)" stroke-width="1" fill="none">
    <path d="M 30 30 L 30 60 M 30 30 L 60 30"/>
    <path d="M 1370 30 L 1370 60 M 1370 30 L 1340 30"/>
    <path d="M 30 950 L 30 920 M 30 950 L 60 950"/>
    <path d="M 1370 950 L 1370 920 M 1370 950 L 1340 950"/>
  </g>

  <!-- ===== HEADER ===== -->
  <g>
    <!-- Title -->
    <text x="60" y="62" font-family="ui-monospace, 'JetBrains Mono', Menlo, monospace" font-size="28" font-weight="700" fill="#f0f6fc" letter-spacing="2">
      AKVORADO <tspan fill="#00d9ff">/</tspan> NUTANIX AHV
    </text>
    <text x="60" y="88" font-family="ui-monospace, 'JetBrains Mono', Menlo, monospace" font-size="12" fill="#8b949e" letter-spacing="3">
      OPEN FLOW OBSERVABILITY ARCHITECTURE
    </text>

    <!-- Version pill -->
    <g transform="translate(1200, 50)">
      <rect x="0" y="0" width="170" height="28" rx="14" fill="none" stroke="#00d9ff" stroke-width="1" stroke-opacity="0.5"/>
      <circle cx="14" cy="14" r="3" fill="#00d97e"/>
      <text x="26" y="18" font-size="11" fill="#8b949e" letter-spacing="1.5">v1.0 — COMMUNITY EDITION</text>
    </g>

    <!-- Accent line under title -->
    <line x1="60" y1="105" x2="340" y2="105" stroke="#00d9ff" stroke-width="2"/>
    <line x1="340" y1="105" x2="1340" y2="105" stroke="rgba(255,255,255,0.08)" stroke-width="1"/>
  </g>

  <!-- ============================================================
       PHASE 01 — DATA PLANE (AHV Cluster)
       ============================================================ -->

  <g transform="translate(0, 135)">
    <!-- Phase label -->
    <g transform="translate(60, 0)">
      <circle cx="14" cy="14" r="14" fill="none" stroke="#00d9ff" stroke-width="1.5"/>
      <text x="14" y="19" text-anchor="middle" font-size="13" font-weight="700" fill="#00d9ff">01</text>
      <text x="40" y="19" font-size="13" font-weight="700" fill="#f0f6fc" letter-spacing="3">DATA PLANE  ·  NUTANIX AHV CLUSTER</text>
    </g>
    <text x="60" y="48" font-size="11" fill="#6e7681">N hosts × M bridges per host  ·  OVS sFlow agent enabled on VM-bearing bridges</text>

    <!-- AHV Hosts (4 cards) -->
    <g transform="translate(60, 60)">

      <!-- Host 1 -->
      <g transform="translate(0, 0)">
        <rect x="0" y="0" width="290" height="180" rx="8" fill="url(#cardBg)" stroke="rgba(0,217,255,0.4)" stroke-width="1"/>
        <!-- Header strip -->
        <rect x="0" y="0" width="290" height="32" rx="8" fill="rgba(0,217,255,0.08)"/>
        <rect x="0" y="24" width="290" height="8" fill="rgba(0,217,255,0.08)"/>
        <circle cx="16" cy="16" r="4" fill="#00d97e"/>
        <text x="28" y="20" font-size="12" font-weight="600" fill="#f0f6fc">ahv-host-01</text>
        <text x="240" y="20" font-size="10" fill="#6e7681">NUTANIX AHV</text>

        <!-- Inner OVS box -->
        <rect x="14" y="46" width="262" height="120" rx="4" fill="rgba(255,255,255,0.02)" stroke="rgba(255,255,255,0.08)" stroke-width="1"/>
        <text x="24" y="64" font-size="10" fill="#8b949e" letter-spacing="1.5">OPEN VSWITCH</text>

        <!-- Bridges -->
        <g transform="translate(24, 78)">
          <rect x="0" y="0" width="100" height="22" rx="3" fill="rgba(0,217,255,0.08)" stroke="rgba(0,217,255,0.35)" stroke-width="1"/>
          <text x="50" y="14" text-anchor="middle" font-size="10" fill="#00d9ff">br0</text>

          <rect x="110" y="0" width="100" height="22" rx="3" fill="rgba(0,217,255,0.08)" stroke="rgba(0,217,255,0.35)" stroke-width="1"/>
          <text x="160" y="14" text-anchor="middle" font-size="10" fill="#00d9ff">br0.local</text>

          <rect x="0" y="28" width="100" height="22" rx="3" fill="rgba(0,217,255,0.08)" stroke="rgba(0,217,255,0.35)" stroke-width="1"/>
          <text x="50" y="42" text-anchor="middle" font-size="10" fill="#00d9ff">brAtlas</text>

          <!-- VM taps indicator -->
          <text x="110" y="42" font-size="9" fill="#6e7681">▸ vnet/tap × N</text>
        </g>

        <!-- sFlow badge -->
        <g transform="translate(24, 138)">
          <rect x="0" y="0" width="228" height="22" rx="3" fill="rgba(255,184,0,0.1)" stroke="rgba(255,184,0,0.4)" stroke-width="1"/>
          <circle cx="12" cy="11" r="3" fill="#ffb800"/>
          <text x="22" y="15" font-size="10" fill="#ffb800">sFlow agent  ·  sampling=1024  ·  header=512</text>
        </g>
      </g>

      <!-- Host 2 -->
      <g transform="translate(310, 0)">
        <rect x="0" y="0" width="290" height="180" rx="8" fill="url(#cardBg)" stroke="rgba(0,217,255,0.4)" stroke-width="1"/>
        <rect x="0" y="0" width="290" height="32" rx="8" fill="rgba(0,217,255,0.08)"/>
        <rect x="0" y="24" width="290" height="8" fill="rgba(0,217,255,0.08)"/>
        <circle cx="16" cy="16" r="4" fill="#00d97e"/>
        <text x="28" y="20" font-size="12" font-weight="600" fill="#f0f6fc">ahv-host-02</text>
        <text x="240" y="20" font-size="10" fill="#6e7681">NUTANIX AHV</text>

        <rect x="14" y="46" width="262" height="120" rx="4" fill="rgba(255,255,255,0.02)" stroke="rgba(255,255,255,0.08)" stroke-width="1"/>
        <text x="24" y="64" font-size="10" fill="#8b949e" letter-spacing="1.5">OPEN VSWITCH</text>

        <g transform="translate(24, 78)">
          <rect x="0" y="0" width="100" height="22" rx="3" fill="rgba(0,217,255,0.08)" stroke="rgba(0,217,255,0.35)" stroke-width="1"/>
          <text x="50" y="14" text-anchor="middle" font-size="10" fill="#00d9ff">br0</text>
          <rect x="110" y="0" width="100" height="22" rx="3" fill="rgba(0,217,255,0.08)" stroke="rgba(0,217,255,0.35)" stroke-width="1"/>
          <text x="160" y="14" text-anchor="middle" font-size="10" fill="#00d9ff">br0.local</text>
          <rect x="0" y="28" width="100" height="22" rx="3" fill="rgba(0,217,255,0.08)" stroke="rgba(0,217,255,0.35)" stroke-width="1"/>
          <text x="50" y="42" text-anchor="middle" font-size="10" fill="#00d9ff">brAtlas</text>
          <text x="110" y="42" font-size="9" fill="#6e7681">▸ vnet/tap × N</text>
        </g>

        <g transform="translate(24, 138)">
          <rect x="0" y="0" width="228" height="22" rx="3" fill="rgba(255,184,0,0.1)" stroke="rgba(255,184,0,0.4)" stroke-width="1"/>
          <circle cx="12" cy="11" r="3" fill="#ffb800"/>
          <text x="22" y="15" font-size="10" fill="#ffb800">sFlow agent  ·  sampling=1024  ·  header=512</text>
        </g>
      </g>

      <!-- Host 3 -->
      <g transform="translate(620, 0)">
        <rect x="0" y="0" width="290" height="180" rx="8" fill="url(#cardBg)" stroke="rgba(0,217,255,0.4)" stroke-width="1"/>
        <rect x="0" y="0" width="290" height="32" rx="8" fill="rgba(0,217,255,0.08)"/>
        <rect x="0" y="24" width="290" height="8" fill="rgba(0,217,255,0.08)"/>
        <circle cx="16" cy="16" r="4" fill="#00d97e"/>
        <text x="28" y="20" font-size="12" font-weight="600" fill="#f0f6fc">ahv-host-03</text>
        <text x="240" y="20" font-size="10" fill="#6e7681">NUTANIX AHV</text>

        <rect x="14" y="46" width="262" height="120" rx="4" fill="rgba(255,255,255,0.02)" stroke="rgba(255,255,255,0.08)" stroke-width="1"/>
        <text x="24" y="64" font-size="10" fill="#8b949e" letter-spacing="1.5">OPEN VSWITCH</text>

        <g transform="translate(24, 78)">
          <rect x="0" y="0" width="100" height="22" rx="3" fill="rgba(0,217,255,0.08)" stroke="rgba(0,217,255,0.35)" stroke-width="1"/>
          <text x="50" y="14" text-anchor="middle" font-size="10" fill="#00d9ff">br0</text>
          <rect x="110" y="0" width="100" height="22" rx="3" fill="rgba(0,217,255,0.08)" stroke="rgba(0,217,255,0.35)" stroke-width="1"/>
          <text x="160" y="14" text-anchor="middle" font-size="10" fill="#00d9ff">br0.local</text>
          <rect x="0" y="28" width="100" height="22" rx="3" fill="rgba(0,217,255,0.08)" stroke="rgba(0,217,255,0.35)" stroke-width="1"/>
          <text x="50" y="42" text-anchor="middle" font-size="10" fill="#00d9ff">brAtlas</text>
          <text x="110" y="42" font-size="9" fill="#6e7681">▸ vnet/tap × N</text>
        </g>

        <g transform="translate(24, 138)">
          <rect x="0" y="0" width="228" height="22" rx="3" fill="rgba(255,184,0,0.1)" stroke="rgba(255,184,0,0.4)" stroke-width="1"/>
          <circle cx="12" cy="11" r="3" fill="#ffb800"/>
          <text x="22" y="15" font-size="10" fill="#ffb800">sFlow agent  ·  sampling=1024  ·  header=512</text>
        </g>
      </g>

      <!-- Host N (dotted) -->
      <g transform="translate(930, 0)">
        <rect x="0" y="0" width="290" height="180" rx="8" fill="rgba(22,27,34,0.4)" stroke="rgba(255,255,255,0.12)" stroke-width="1" stroke-dasharray="4,4"/>
        <text x="145" y="80" text-anchor="middle" font-size="14" fill="#6e7681" letter-spacing="2">ahv-host-N</text>
        <text x="145" y="100" text-anchor="middle" font-size="11" fill="#484f58" letter-spacing="1">SAME PATTERN</text>
        <text x="145" y="120" text-anchor="middle" font-size="10" fill="#484f58">↑ N hosts in cluster ↑</text>
      </g>

    </g>
  </g>

  <!-- ============================================================
       FLOW LINES — sFlow datagrams to collector
       ============================================================ -->

  <g>
    <!-- 4 lines converging -->
    <path d="M 205 375 Q 205 410 700 440" stroke="url(#cyanFlow)" stroke-width="1.5" fill="none" opacity="0.8"/>
    <path d="M 515 375 Q 515 410 700 440" stroke="url(#cyanFlow)" stroke-width="1.5" fill="none" opacity="0.8"/>
    <path d="M 825 375 Q 825 410 700 440" stroke="url(#cyanFlow)" stroke-width="1.5" fill="none" opacity="0.8"/>
    <path d="M 1135 375 Q 1135 410 700 440" stroke="url(#cyanFlow)" stroke-width="1.5" fill="none" opacity="0.6" stroke-dasharray="3,3"/>

    <!-- Convergence dot -->
    <circle cx="700" cy="445" r="5" fill="#00d9ff" filter="url(#cyanGlow)"/>

    <!-- Vertical line to collector -->
    <line x1="700" y1="445" x2="700" y2="500" stroke="url(#cyanFlow)" stroke-width="2" marker-end="url(#arrowCyan)"/>

    <!-- Label -->
    <g transform="translate(740, 425)">
      <rect x="0" y="0" width="290" height="42" rx="4" fill="rgba(0,217,255,0.05)" stroke="rgba(0,217,255,0.25)" stroke-width="1"/>
      <text x="14" y="18" font-size="10" fill="#00d9ff" letter-spacing="1">sFlow datagrams</text>
      <text x="14" y="34" font-size="9" fill="#8b949e">UDP/6344 → container :6343  ·  v5  ·  ~3–125 MB/s</text>
    </g>
  </g>

  <!-- ============================================================
       PHASE 02 — OBSERVABILITY VM
       ============================================================ -->

  <g transform="translate(0, 515)">

    <!-- Phase label -->
    <g transform="translate(60, 0)">
      <circle cx="14" cy="14" r="14" fill="none" stroke="#ffb800" stroke-width="1.5"/>
      <text x="14" y="19" text-anchor="middle" font-size="13" font-weight="700" fill="#ffb800">02</text>
      <text x="40" y="19" font-size="13" font-weight="700" fill="#f0f6fc" letter-spacing="3">CONTROL PLANE  ·  OBSERVABILITY VM</text>
    </g>
    <text x="60" y="48" font-size="11" fill="#6e7681">Linux + Docker  ·  Akvorado microservices  ·  ClickHouse storage  ·  100% on-premises</text>

    <!-- Container box -->
    <g transform="translate(60, 65)">
      <rect x="0" y="0" width="1280" height="290" rx="10" fill="url(#pipelineBg)" stroke="rgba(255,184,0,0.3)" stroke-width="1"/>

      <!-- Docker indicator strip -->
      <g transform="translate(20, 18)">
        <text x="0" y="0" font-size="10" fill="#ffb800" letter-spacing="2">▸ DOCKER COMPOSE</text>
        <text x="1100" y="0" font-size="10" fill="#6e7681" letter-spacing="1">akvorado/akvorado:latest</text>
      </g>

      <!-- ===== SERVICE PIPELINE ===== -->
      <g transform="translate(20, 50)">

        <!-- 1. INLET -->
        <g transform="translate(0, 30)">
          <rect x="0" y="0" width="220" height="160" rx="6" fill="rgba(22,27,34,0.7)" stroke="rgba(255,184,0,0.5)" stroke-width="1"/>
          <rect x="0" y="0" width="220" height="4" rx="2" fill="#ffb800"/>

          <text x="14" y="28" font-size="11" fill="#ffb800" letter-spacing="2">SERVICE 1</text>
          <text x="14" y="50" font-size="15" font-weight="700" fill="#f0f6fc">Akvorado Inlet</text>
          <text x="14" y="68" font-size="10" fill="#8b949e">UDP listener · decoder</text>

          <line x1="14" y1="78" x2="206" y2="78" stroke="rgba(255,255,255,0.08)" stroke-width="1"/>

          <text x="14" y="98" font-size="9" fill="#6e7681">listens on:</text>
          <text x="14" y="113" font-size="10" fill="#e4e9f2">:6343 sFlow  ·  6 workers</text>
          <text x="14" y="126" font-size="10" fill="#484f58">:2055 NetFlow (optional)</text>

          <text x="14" y="148" font-size="9" fill="#6e7681">→ kafka topic "flows"</text>
        </g>

        <!-- Arrow 1→2 -->
        <line x1="225" y1="110" x2="270" y2="110" stroke="#ffb800" stroke-width="2" marker-end="url(#arrowAmber)" opacity="0.7"/>

        <!-- 2. KAFKA -->
        <g transform="translate(275, 30)">
          <rect x="0" y="0" width="220" height="160" rx="6" fill="rgba(22,27,34,0.7)" stroke="rgba(255,184,0,0.5)" stroke-width="1"/>
          <rect x="0" y="0" width="220" height="4" rx="2" fill="#ffb800"/>

          <text x="14" y="28" font-size="11" fill="#ffb800" letter-spacing="2">SERVICE 2</text>
          <text x="14" y="50" font-size="15" font-weight="700" fill="#f0f6fc">Kafka</text>
          <text x="14" y="68" font-size="10" fill="#8b949e">message buffer</text>

          <line x1="14" y1="78" x2="206" y2="78" stroke="rgba(255,255,255,0.08)" stroke-width="1"/>

          <text x="14" y="98" font-size="9" fill="#6e7681">topic configuration:</text>
          <text x="14" y="113" font-size="10" fill="#e4e9f2">8 partitions</text>
          <text x="14" y="126" font-size="10" fill="#e4e9f2">24h retention</text>

          <text x="14" y="148" font-size="9" fill="#6e7681">decouples inlet ⇄ outlet</text>
        </g>

        <!-- Arrow 2→3 -->
        <line x1="500" y1="110" x2="545" y2="110" stroke="#ffb800" stroke-width="2" marker-end="url(#arrowAmber)" opacity="0.7"/>

        <!-- 3. OUTLET -->
        <g transform="translate(550, 30)">
          <rect x="0" y="0" width="220" height="160" rx="6" fill="rgba(22,27,34,0.7)" stroke="rgba(255,184,0,0.5)" stroke-width="1"/>
          <rect x="0" y="0" width="220" height="4" rx="2" fill="#ffb800"/>

          <text x="14" y="28" font-size="11" fill="#ffb800" letter-spacing="2">SERVICE 3</text>
          <text x="14" y="50" font-size="15" font-weight="700" fill="#f0f6fc">Akvorado Outlet</text>
          <text x="14" y="68" font-size="10" fill="#8b949e">metadata enricher</text>

          <line x1="14" y1="78" x2="206" y2="78" stroke="rgba(255,255,255,0.08)" stroke-width="1"/>

          <text x="14" y="98" font-size="9" fill="#6e7681">applies exporter labels:</text>
          <text x="14" y="113" font-size="10" fill="#e4e9f2">name, group, role</text>
          <text x="14" y="126" font-size="10" fill="#e4e9f2">site, region, tenant</text>

          <text x="14" y="148" font-size="9" fill="#6e7681">DR-aware schema applied</text>
        </g>

        <!-- Arrow 3→4 -->
        <line x1="775" y1="110" x2="820" y2="110" stroke="#00d97e" stroke-width="2" marker-end="url(#arrowGreen)" opacity="0.8"/>

        <!-- 4. CLICKHOUSE -->
        <g transform="translate(825, 30)">
          <rect x="0" y="0" width="220" height="160" rx="6" fill="rgba(22,27,34,0.7)" stroke="rgba(0,217,126,0.5)" stroke-width="1"/>
          <rect x="0" y="0" width="220" height="4" rx="2" fill="#00d97e"/>

          <text x="14" y="28" font-size="11" fill="#00d97e" letter-spacing="2">SERVICE 4</text>
          <text x="14" y="50" font-size="15" font-weight="700" fill="#f0f6fc">ClickHouse</text>
          <text x="14" y="68" font-size="10" fill="#8b949e">columnar storage</text>

          <line x1="14" y1="78" x2="206" y2="78" stroke="rgba(255,255,255,0.08)" stroke-width="1"/>

          <text x="14" y="98" font-size="9" fill="#6e7681">flows table · materialized views:</text>
          <text x="14" y="113" font-size="10" fill="#e4e9f2">5m / 1h / 1d aggregates</text>
          <text x="14" y="126" font-size="10" fill="#e4e9f2">50–80k inserts/min</text>

          <text x="14" y="148" font-size="9" fill="#6e7681">fast storage backing</text>
        </g>

        <!-- Arrow 4→5 -->
        <line x1="1050" y1="110" x2="1095" y2="110" stroke="#ff3b9a" stroke-width="2" marker-end="url(#arrowPink)" opacity="0.8"/>

        <!-- 5. CONSOLE -->
        <g transform="translate(1100, 30)">
          <rect x="0" y="0" width="160" height="160" rx="6" fill="rgba(22,27,34,0.7)" stroke="rgba(255,59,154,0.5)" stroke-width="1"/>
          <rect x="0" y="0" width="160" height="4" rx="2" fill="#ff3b9a"/>

          <text x="14" y="28" font-size="11" fill="#ff3b9a" letter-spacing="2">SERVICE 5</text>
          <text x="14" y="50" font-size="15" font-weight="700" fill="#f0f6fc">Console</text>
          <text x="14" y="68" font-size="10" fill="#8b949e">web UI</text>

          <line x1="14" y1="78" x2="146" y2="78" stroke="rgba(255,255,255,0.08)" stroke-width="1"/>

          <text x="14" y="98" font-size="10" fill="#e4e9f2">:8080</text>
          <text x="14" y="115" font-size="9" fill="#6e7681">Visualize tab</text>
          <text x="14" y="128" font-size="9" fill="#6e7681">PromQL-like filters</text>

          <text x="14" y="148" font-size="9" fill="#6e7681">SQL via clickhouse</text>
        </g>

      </g>

      <!-- Bottom storage indicator -->
      <g transform="translate(20, 254)">
        <text x="0" y="0" font-size="10" fill="#6e7681" letter-spacing="1">▸ PERSISTENT STORAGE</text>
        <rect x="160" y="-12" width="170" height="20" rx="3" fill="rgba(0,217,126,0.08)" stroke="rgba(0,217,126,0.3)" stroke-width="1"/>
        <text x="170" y="2" font-size="10" fill="#00d97e">/srv/fast/clickhouse</text>
        <rect x="340" y="-12" width="170" height="20" rx="3" fill="rgba(0,217,126,0.08)" stroke="rgba(0,217,126,0.3)" stroke-width="1"/>
        <text x="350" y="2" font-size="10" fill="#00d97e">/srv/fast/kafka</text>

        <text x="800" y="0" font-size="10" fill="#6e7681" letter-spacing="1">▸ ZERO SaaS  ·  ZERO DATA EGRESS</text>
      </g>

    </g>
  </g>

  <!-- ============================================================
       PHASE 03 — OPERATORS
       ============================================================ -->

  <g transform="translate(0, 880)">
    <!-- Connection from Console to Operators -->
    <path d="M 1180 -10 Q 1180 30 900 50" stroke="url(#pinkFlow)" stroke-width="2" fill="none" opacity="0.7"/>

    <!-- Phase label -->
    <g transform="translate(60, 35)">
      <circle cx="14" cy="14" r="14" fill="none" stroke="#ff3b9a" stroke-width="1.5"/>
      <text x="14" y="19" text-anchor="middle" font-size="13" font-weight="700" fill="#ff3b9a">03</text>
      <text x="40" y="19" font-size="13" font-weight="700" fill="#f0f6fc" letter-spacing="3">CONSUMERS  ·  OPERATORS &amp; AUTOMATION</text>
    </g>

    <!-- Operator indicators -->
    <g transform="translate(680, 35)">
      <g transform="translate(0, 0)">
        <rect x="0" y="0" width="160" height="34" rx="4" fill="rgba(255,59,154,0.06)" stroke="rgba(255,59,154,0.3)" stroke-width="1"/>
        <circle cx="16" cy="17" r="5" fill="#ff3b9a"/>
        <text x="28" y="14" font-size="10" fill="#f0f6fc">Network Operations</text>
        <text x="28" y="26" font-size="9" fill="#8b949e">incident response</text>
      </g>
      <g transform="translate(170, 0)">
        <rect x="0" y="0" width="160" height="34" rx="4" fill="rgba(255,59,154,0.06)" stroke="rgba(255,59,154,0.3)" stroke-width="1"/>
        <circle cx="16" cy="17" r="5" fill="#ff3b9a"/>
        <text x="28" y="14" font-size="10" fill="#f0f6fc">Security Engineering</text>
        <text x="28" y="26" font-size="9" fill="#8b949e">anomaly investigation</text>
      </g>
      <g transform="translate(340, 0)">
        <rect x="0" y="0" width="160" height="34" rx="4" fill="rgba(255,59,154,0.06)" stroke="rgba(255,59,154,0.3)" stroke-width="1"/>
        <circle cx="16" cy="17" r="5" fill="#ff3b9a"/>
        <text x="28" y="14" font-size="10" fill="#f0f6fc">AIOps / Anomaly ML</text>
        <text x="28" y="26" font-size="9" fill="#8b949e">future: LangGraph + LLM</text>
      </g>
    </g>
  </g>

  <!-- ============================================================
       LEGEND / FOOTER
       ============================================================ -->

  <g transform="translate(60, 945)">
    <line x1="0" y1="-20" x2="1280" y2="-20" stroke="rgba(255,255,255,0.08)" stroke-width="1"/>

    <g transform="translate(0, 0)">
      <circle cx="6" cy="-3" r="4" fill="#00d9ff"/>
      <text x="18" y="0" font-size="9" fill="#8b949e" letter-spacing="1">DATA PLANE</text>
    </g>
    <g transform="translate(140, 0)">
      <circle cx="6" cy="-3" r="4" fill="#ffb800"/>
      <text x="18" y="0" font-size="9" fill="#8b949e" letter-spacing="1">PROCESSING</text>
    </g>
    <g transform="translate(280, 0)">
      <circle cx="6" cy="-3" r="4" fill="#00d97e"/>
      <text x="18" y="0" font-size="9" fill="#8b949e" letter-spacing="1">STORAGE</text>
    </g>
    <g transform="translate(400, 0)">
      <circle cx="6" cy="-3" r="4" fill="#ff3b9a"/>
      <text x="18" y="0" font-size="9" fill="#8b949e" letter-spacing="1">CONSUMERS</text>
    </g>

    <text x="1280" y="0" text-anchor="end" font-size="9" fill="#484f58" letter-spacing="2">akvorado-ahv-observability  ·  apache 2.0</text>
  </g>

</svg>
